<svg viewBox="0 0 1024 1024" xmlns="http://www.w3.org/2000/svg" xmlns:xlink="http://www.w3.org/1999/xlink">
  <defs>
    <path id="path-2" d="M0 .716h1024V322H0z"/>
    <path id="path-4" d="M.116.904H95V127.66H.116z"/>
    <path id="path-6" d="M0 0h104.697v131.57H0z"/>
    <path id="path-8" d="M.14.63h47.7V55H.14z"/>
    <path id="path-10" d="M.95.1h97.899V98H.949z"/>
    <path id="path-12" d="M.78.77h26.909V29H.779z"/>
    <path id="path-14" d="M.62.54h51.46V52H.62z"/>
    <path id="path-16" d="M.79.16h70.84V71H.79z"/>
    <path id="path-18" d="M.095.982h32.477V38H.095z"/>
    <path id="path-20" d="M.212.78h18.321V20H.213z"/>
    <path id="path-22" d="M.898.967h50.718V55H.897z"/>
    <path id="path-24" d="M.592.964H35.63V36H.592z"/>
    <path id="path-26" d="M.431.768h48.232V49H.431z"/>
    <path id="path-28" d="M0 .336h47.428v76.821H0z"/>
    <path id="path-30" d="M.978.707h18.576V40H.978z"/>
    <linearGradient x1="50%" y1="56.233%" x2="50%" y2="-19.604%" id="linearGradient-1">
      <stop stop-color="#FFDE93" offset="0%"/>
      <stop stop-color="#C90075" offset="100%"/>
    </linearGradient>
  </defs>
  <g id="Custom-Preset" stroke="none" stroke-width="1" fill="none" fill-rule="evenodd">
    <!-- @import "svg/background.kit" -->
    <!-- @import "svg/midground.kit" -->
    <!-- @import "svg/foreground.kit" -->
    <!-- @import "svg/clouds_all.kit" -->
    <!-- @import "svg/moon.kit" -->
    <!-- @import "svg/rocket.kit" -->
    <!-- @import "svg/smoke.kit" -->
  </g>
</svg>
